# Blender v2.77 (sub 0) OBJ File: 'Coin.blend'
# www.blender.org
mtllib Coin.mtl
o Cylinder
v -0.060638 -0.000000 -0.762099
v 0.060638 0.000000 -0.762099
v -0.060638 -0.148678 -0.747455
v 0.060638 -0.148678 -0.747455
v -0.060637 -0.291643 -0.704087
v 0.060638 -0.291643 -0.704087
v -0.060637 -0.423399 -0.633662
v 0.060638 -0.423399 -0.633662
v -0.060637 -0.538885 -0.538885
v 0.060638 -0.538885 -0.538885
v -0.060637 -0.633662 -0.423399
v 0.060638 -0.633662 -0.423399
v -0.060637 -0.704087 -0.291643
v 0.060638 -0.704087 -0.291643
v -0.060637 -0.747455 -0.148678
v 0.060638 -0.747455 -0.148678
v -0.060637 -0.762099 -0.000000
v 0.060638 -0.762099 -0.000000
v -0.060637 -0.747455 0.148678
v 0.060638 -0.747455 0.148678
v -0.060637 -0.704087 0.291642
v 0.060638 -0.704087 0.291642
v -0.060637 -0.633662 0.423399
v 0.060638 -0.633662 0.423399
v -0.060637 -0.538885 0.538885
v 0.060638 -0.538885 0.538885
v -0.060637 -0.423399 0.633662
v 0.060638 -0.423399 0.633662
v -0.060637 -0.291642 0.704087
v 0.060638 -0.291642 0.704087
v -0.060638 -0.148678 0.747455
v 0.060638 -0.148678 0.747455
v -0.060638 0.000000 0.762099
v 0.060638 0.000000 0.762099
v -0.060638 0.148678 0.747455
v 0.060638 0.148678 0.747455
v -0.060638 0.291643 0.704087
v 0.060637 0.291643 0.704087
v -0.060638 0.423400 0.633662
v 0.060637 0.423400 0.633662
v -0.060638 0.538886 0.538885
v 0.060637 0.538886 0.538885
v -0.060638 0.633662 0.423399
v 0.060637 0.633662 0.423399
v -0.060638 0.704088 0.291642
v 0.060637 0.704088 0.291642
v -0.060638 0.747455 0.148677
v 0.060637 0.747455 0.148677
v -0.060638 0.762099 -0.000001
v 0.060637 0.762099 -0.000001
v -0.060638 0.747455 -0.148679
v 0.060637 0.747455 -0.148679
v -0.060638 0.704087 -0.291643
v 0.060637 0.704087 -0.291643
v -0.060638 0.633661 -0.423400
v 0.060637 0.633661 -0.423400
v -0.060638 0.538884 -0.538886
v 0.060637 0.538884 -0.538886
v -0.060638 0.423399 -0.633663
v 0.060637 0.423399 -0.633663
v -0.060638 0.291642 -0.704088
v 0.060637 0.291642 -0.704088
v -0.060638 0.148677 -0.747455
v 0.060638 0.148677 -0.747455
vt 0.2813 0.1954
vt 0.3125 0.5142
vt 0.2813 0.5142
vt 0.3125 0.1954
vt 0.3438 0.5142
vt 0.3438 0.1954
vt 0.3750 0.5142
vt 0.3750 0.1954
vt 0.4063 0.5142
vt 0.4063 0.1954
vt 0.4375 0.5142
vt 0.4375 0.1954
vt 0.4688 0.5142
vt 0.4688 0.1954
vt 0.5000 0.5142
vt 0.5000 0.1954
vt 0.5312 0.5142
vt 0.5312 0.1954
vt 0.5625 0.5142
vt 0.5625 0.1954
vt 0.5937 0.5142
vt 0.5937 0.1954
vt 0.6250 0.5142
vt 0.6250 0.1954
vt 0.6562 0.5142
vt 0.6562 0.1954
vt 0.6875 0.5142
vt 0.6875 0.1954
vt 0.7187 0.5142
vt 0.7499 0.1954
vt 0.7499 0.5142
vt 0.7812 0.5142
vt 0.7812 0.1954
vt 0.8124 0.5142
vt 0.8437 0.1954
vt 0.8437 0.5142
vt 0.8749 0.5142
vt 0.8749 0.1954
vt 0.9062 0.5142
vt 0.9061 0.1954
vt 0.9374 0.5142
vt 0.9374 0.1954
vt 0.9686 0.5142
vt 0.9686 0.1954
vt 0.9999 0.5142
vt 0.0001 0.1954
vt 0.0314 0.5142
vt 0.0001 0.5142
vt 0.0314 0.1954
vt 0.0626 0.5142
vt 0.0626 0.1954
vt 0.0938 0.5142
vt 0.0938 0.1954
vt 0.1251 0.5142
vt 0.1251 0.1954
vt 0.1563 0.5142
vt 0.1563 0.1954
vt 0.1876 0.5142
vt 0.1876 0.1954
vt 0.2188 0.5142
vt 0.7307 0.5986
vt 0.9175 0.8263
vt 0.8232 0.9037
vt 0.2188 0.1954
vt 0.2501 0.5142
vt 0.2501 0.1954
vt 0.3222 0.8958
vt 0.1354 0.6682
vt 0.2296 0.5908
vt 0.7187 0.1954
vt 0.8124 0.1954
vt 0.9999 0.1954
vt 0.7926 0.9098
vt 0.7613 0.9098
vt 0.7307 0.9037
vt 0.7018 0.8917
vt 0.6759 0.8743
vt 0.6538 0.8523
vt 0.6364 0.8263
vt 0.6244 0.7974
vt 0.6184 0.7668
vt 0.6184 0.7355
vt 0.6244 0.7049
vt 0.6364 0.6760
vt 0.6538 0.6500
vt 0.6759 0.6280
vt 0.7018 0.6106
vt 0.7613 0.5925
vt 0.8521 0.6106
vt 0.7926 0.5925
vt 0.8232 0.5986
vt 0.8781 0.6280
vt 0.9002 0.6500
vt 0.9175 0.6760
vt 0.9295 0.7049
vt 0.9356 0.7355
vt 0.9356 0.7668
vt 0.9295 0.7974
vt 0.9002 0.8523
vt 0.8781 0.8743
vt 0.8521 0.8917
vt 0.2603 0.5847
vt 0.2915 0.5847
vt 0.3222 0.5908
vt 0.3510 0.6028
vt 0.3770 0.6201
vt 0.3991 0.6422
vt 0.4165 0.6682
vt 0.4284 0.6971
vt 0.4345 0.7277
vt 0.4345 0.7590
vt 0.4284 0.7896
vt 0.4165 0.8185
vt 0.3991 0.8444
vt 0.3770 0.8665
vt 0.3510 0.8839
vt 0.2915 0.9019
vt 0.2603 0.9019
vt 0.2296 0.8958
vt 0.2008 0.8839
vt 0.1748 0.8665
vt 0.1527 0.8444
vt 0.1354 0.8185
vt 0.1234 0.7896
vt 0.1173 0.7590
vt 0.1173 0.7277
vt 0.1234 0.6971
vt 0.1527 0.6422
vt 0.1748 0.6201
vt 0.2008 0.6028
vn 0.0000 -0.0980 -0.9952
vn 0.0000 -0.2903 -0.9569
vn 0.0000 -0.4714 -0.8819
vn 0.0000 -0.6344 -0.7730
vn 0.0000 -0.7730 -0.6344
vn 0.0000 -0.8819 -0.4714
vn 0.0000 -0.9569 -0.2903
vn 0.0000 -0.9952 -0.0980
vn 0.0000 -0.9952 0.0980
vn 0.0000 -0.9569 0.2903
vn 0.0000 -0.8819 0.4714
vn 0.0000 -0.7730 0.6344
vn 0.0000 -0.6344 0.7730
vn 0.0000 -0.4714 0.8819
vn 0.0000 -0.2903 0.9569
vn 0.0000 -0.0980 0.9952
vn 0.0000 0.0980 0.9952
vn 0.0000 0.2903 0.9569
vn 0.0000 0.4714 0.8819
vn 0.0000 0.6344 0.7730
vn 0.0000 0.7730 0.6344
vn 0.0000 0.8819 0.4714
vn 0.0000 0.9569 0.2903
vn 0.0000 0.9952 0.0980
vn 0.0000 0.9952 -0.0980
vn 0.0000 0.9569 -0.2903
vn 0.0000 0.8819 -0.4714
vn 0.0000 0.7730 -0.6344
vn 0.0000 0.6344 -0.7730
vn 0.0000 0.4714 -0.8819
vn 1.0000 0.0000 0.0000
vn 0.0000 0.2903 -0.9569
vn 0.0000 0.0980 -0.9952
vn -1.0000 -0.0000 -0.0000
usemtl Material
s off
f 2/1/1 3/2/1 1/3/1
f 4/4/2 5/5/2 3/2/2
f 6/6/3 7/7/3 5/5/3
f 8/8/4 9/9/4 7/7/4
f 10/10/5 11/11/5 9/9/5
f 12/12/6 13/13/6 11/11/6
f 14/14/7 15/15/7 13/13/7
f 16/16/8 17/17/8 15/15/8
f 18/18/9 19/19/9 17/17/9
f 20/20/10 21/21/10 19/19/10
f 22/22/11 23/23/11 21/21/11
f 24/24/12 25/25/12 23/23/12
f 26/26/13 27/27/13 25/25/13
f 28/28/14 29/29/14 27/27/14
f 29/29/15 32/30/15 31/31/15
f 32/30/16 33/32/16 31/31/16
f 34/33/17 35/34/17 33/32/17
f 35/34/18 38/35/18 37/36/18
f 38/35/19 39/37/19 37/36/19
f 40/38/20 41/39/20 39/37/20
f 42/40/21 43/41/21 41/39/21
f 44/42/22 45/43/22 43/41/22
f 46/44/23 47/45/23 45/43/23
f 48/46/24 49/47/24 47/48/24
f 50/49/25 51/50/25 49/47/25
f 52/51/26 53/52/26 51/50/26
f 54/53/27 55/54/27 53/52/27
f 56/55/28 57/56/28 55/54/28
f 58/57/29 59/58/29 57/56/29
f 60/59/30 61/60/30 59/58/30
f 38/61/31 14/62/31 6/63/31
f 62/64/32 63/65/32 61/60/32
f 64/66/33 1/3/33 63/65/33
f 31/67/34 55/68/34 63/69/34
f 2/1/1 4/4/1 3/2/1
f 4/4/2 6/6/2 5/5/2
f 6/6/3 8/8/3 7/7/3
f 8/8/4 10/10/4 9/9/4
f 10/10/5 12/12/5 11/11/5
f 12/12/6 14/14/6 13/13/6
f 14/14/7 16/16/7 15/15/7
f 16/16/8 18/18/8 17/17/8
f 18/18/9 20/20/9 19/19/9
f 20/20/10 22/22/10 21/21/10
f 22/22/11 24/24/11 23/23/11
f 24/24/12 26/26/12 25/25/12
f 26/26/13 28/28/13 27/27/13
f 28/28/14 30/70/14 29/29/14
f 29/29/15 30/70/15 32/30/15
f 32/30/16 34/33/16 33/32/16
f 34/33/17 36/71/17 35/34/17
f 35/34/18 36/71/18 38/35/18
f 38/35/19 40/38/19 39/37/19
f 40/38/20 42/40/20 41/39/20
f 42/40/21 44/42/21 43/41/21
f 44/42/22 46/44/22 45/43/22
f 46/44/23 48/72/23 47/45/23
f 48/46/24 50/49/24 49/47/24
f 50/49/25 52/51/25 51/50/25
f 52/51/26 54/53/26 53/52/26
f 54/53/27 56/55/27 55/54/27
f 56/55/28 58/57/28 57/56/28
f 58/57/29 60/59/29 59/58/29
f 60/59/30 62/64/30 61/60/30
f 6/63/31 4/73/31 2/74/31
f 2/74/31 64/75/31 6/63/31
f 62/76/31 60/77/31 58/78/31
f 58/78/31 56/79/31 54/80/31
f 54/80/31 52/81/31 50/82/31
f 50/82/31 48/83/31 46/84/31
f 46/84/31 44/85/31 38/61/31
f 42/86/31 40/87/31 38/61/31
f 38/61/31 36/88/31 30/89/31
f 34/90/31 32/91/31 30/89/31
f 30/89/31 28/92/31 26/93/31
f 26/93/31 24/94/31 22/95/31
f 22/95/31 20/96/31 18/97/31
f 18/97/31 16/98/31 22/95/31
f 14/62/31 12/99/31 10/100/31
f 10/100/31 8/101/31 14/62/31
f 6/63/31 64/75/31 62/76/31
f 62/76/31 58/78/31 6/63/31
f 54/80/31 50/82/31 46/84/31
f 44/85/31 42/86/31 38/61/31
f 36/88/31 34/90/31 30/89/31
f 30/89/31 26/93/31 22/95/31
f 22/95/31 16/98/31 14/62/31
f 14/62/31 8/101/31 6/63/31
f 6/63/31 58/78/31 54/80/31
f 54/80/31 46/84/31 6/63/31
f 38/61/31 30/89/31 22/95/31
f 22/95/31 14/62/31 38/61/31
f 6/63/31 46/84/31 38/61/31
f 62/64/32 64/66/32 63/65/32
f 64/66/33 2/1/33 1/3/33
f 63/69/34 1/102/34 3/103/34
f 3/103/34 5/104/34 63/69/34
f 7/105/34 9/106/34 11/107/34
f 11/107/34 13/108/34 7/105/34
f 15/109/34 17/110/34 19/111/34
f 19/111/34 21/112/34 15/109/34
f 23/113/34 25/114/34 31/67/34
f 27/115/34 29/116/34 31/67/34
f 31/67/34 33/117/34 35/118/34
f 35/118/34 37/119/34 39/120/34
f 39/120/34 41/121/34 43/122/34
f 43/122/34 45/123/34 47/124/34
f 47/124/34 49/125/34 51/126/34
f 51/126/34 53/127/34 47/124/34
f 55/68/34 57/128/34 63/69/34
f 59/129/34 61/130/34 63/69/34
f 63/69/34 5/104/34 7/105/34
f 7/105/34 13/108/34 15/109/34
f 15/109/34 21/112/34 23/113/34
f 25/114/34 27/115/34 31/67/34
f 31/67/34 35/118/34 39/120/34
f 39/120/34 43/122/34 31/67/34
f 47/124/34 53/127/34 55/68/34
f 57/128/34 59/129/34 63/69/34
f 63/69/34 7/105/34 31/67/34
f 15/109/34 23/113/34 31/67/34
f 31/67/34 43/122/34 47/124/34
f 47/124/34 55/68/34 31/67/34
f 7/105/34 15/109/34 31/67/34
